<mxfile host="app.diagrams.net" modified="2023-10-22T14:10:43.020Z" agent="Mozilla/5.0 (Windows NT 10.0; Win64; x64) AppleWebKit/537.36 (KHTML, like Gecko) Chrome/118.0.0.0 Safari/537.36" etag="OM5HOl0Eh8SwQB6ZTQDy" version="22.0.6" type="device">
  <diagram name="Page-1" id="VfcmzYVq7IHj4NZGGKAd">
    <mxGraphModel dx="1034" dy="503" grid="1" gridSize="10" guides="1" tooltips="1" connect="1" arrows="1" fold="1" page="1" pageScale="1" pageWidth="850" pageHeight="1100" math="0" shadow="0">
      <root>
        <mxCell id="0" />
        <mxCell id="1" parent="0" />
        <mxCell id="x9B5QvzozwNxZEn9I2Yj-1" value="" style="whiteSpace=wrap;html=1;aspect=fixed;" vertex="1" parent="1">
          <mxGeometry x="90" y="60" width="210" height="210" as="geometry" />
        </mxCell>
        <mxCell id="x9B5QvzozwNxZEn9I2Yj-4" value="R1" style="whiteSpace=wrap;html=1;aspect=fixed;" vertex="1" parent="1">
          <mxGeometry x="110" y="80" width="50" height="50" as="geometry" />
        </mxCell>
        <mxCell id="x9B5QvzozwNxZEn9I2Yj-5" value="R2" style="whiteSpace=wrap;html=1;aspect=fixed;" vertex="1" parent="1">
          <mxGeometry x="200" y="80" width="50" height="50" as="geometry" />
        </mxCell>
        <mxCell id="x9B5QvzozwNxZEn9I2Yj-6" value="R3" style="whiteSpace=wrap;html=1;aspect=fixed;" vertex="1" parent="1">
          <mxGeometry x="110" y="160" width="50" height="50" as="geometry" />
        </mxCell>
        <mxCell id="x9B5QvzozwNxZEn9I2Yj-7" value="R4" style="whiteSpace=wrap;html=1;aspect=fixed;" vertex="1" parent="1">
          <mxGeometry x="200" y="160" width="50" height="50" as="geometry" />
        </mxCell>
        <mxCell id="x9B5QvzozwNxZEn9I2Yj-13" style="edgeStyle=orthogonalEdgeStyle;rounded=0;orthogonalLoop=1;jettySize=auto;html=1;" edge="1" parent="1" source="x9B5QvzozwNxZEn9I2Yj-8" target="x9B5QvzozwNxZEn9I2Yj-5">
          <mxGeometry relative="1" as="geometry" />
        </mxCell>
        <mxCell id="x9B5QvzozwNxZEn9I2Yj-14" value="Booking" style="edgeLabel;html=1;align=center;verticalAlign=middle;resizable=0;points=[];" vertex="1" connectable="0" parent="x9B5QvzozwNxZEn9I2Yj-13">
          <mxGeometry x="-0.361" y="-4" relative="1" as="geometry">
            <mxPoint as="offset" />
          </mxGeometry>
        </mxCell>
        <mxCell id="x9B5QvzozwNxZEn9I2Yj-8" value="Person A" style="shape=umlActor;verticalLabelPosition=bottom;verticalAlign=top;html=1;outlineConnect=0;" vertex="1" parent="1">
          <mxGeometry x="470" y="120" width="30" height="60" as="geometry" />
        </mxCell>
        <mxCell id="x9B5QvzozwNxZEn9I2Yj-9" value="person B&lt;br&gt;" style="shape=umlActor;verticalLabelPosition=bottom;verticalAlign=top;html=1;outlineConnect=0;" vertex="1" parent="1">
          <mxGeometry x="600" y="100" width="30" height="60" as="geometry" />
        </mxCell>
        <mxCell id="x9B5QvzozwNxZEn9I2Yj-15" value="Room" style="rounded=0;whiteSpace=wrap;html=1;" vertex="1" parent="1">
          <mxGeometry x="120" y="430" width="120" height="60" as="geometry" />
        </mxCell>
        <mxCell id="x9B5QvzozwNxZEn9I2Yj-16" value="person" style="rounded=0;whiteSpace=wrap;html=1;" vertex="1" parent="1">
          <mxGeometry x="390" y="430" width="120" height="60" as="geometry" />
        </mxCell>
        <mxCell id="x9B5QvzozwNxZEn9I2Yj-17" value="Booking" style="rounded=0;whiteSpace=wrap;html=1;" vertex="1" parent="1">
          <mxGeometry x="250" y="550" width="120" height="60" as="geometry" />
        </mxCell>
      </root>
    </mxGraphModel>
  </diagram>
</mxfile>
